<svg xmlns="http://www.w3.org/2000/svg" xmlns:xlink="http://www.w3.org/1999/xlink" width="200" zoomAndPan="magnify" viewBox="0 0 150 149.999998" height="200" preserveAspectRatio="xMidYMid meet" version="1.0"><defs><clipPath id="4e17722746"><path d="M 67.953125 15 L 82.121094 15 L 82.121094 19.546875 L 67.953125 19.546875 Z M 67.953125 20.753906 L 82.121094 20.753906 L 82.121094 25.300781 L 67.953125 25.300781 Z M 51.714844 26.539062 L 65.878906 26.539062 L 65.878906 31.085938 L 51.714844 31.085938 Z M 67.953125 26.539062 L 82.121094 26.539062 L 82.121094 31.085938 L 67.953125 31.085938 Z M 100.402344 26.539062 L 114.570312 26.539062 L 114.570312 31.085938 L 100.402344 31.085938 Z M 19.292969 32.324219 L 33.457031 32.324219 L 33.457031 36.871094 L 19.292969 36.871094 Z M 51.714844 32.324219 L 65.878906 32.324219 L 65.878906 36.871094 L 51.714844 36.871094 Z M 67.953125 32.324219 L 82.121094 32.324219 L 82.121094 36.871094 L 67.953125 36.871094 Z M 100.402344 32.324219 L 114.570312 32.324219 L 114.570312 36.871094 L 100.402344 36.871094 Z M 19.292969 38.078125 L 33.457031 38.078125 L 33.457031 42.625 L 19.292969 42.625 Z M 51.714844 38.078125 L 65.878906 38.078125 L 65.878906 42.625 L 51.714844 42.625 Z M 67.953125 38.078125 L 82.121094 38.078125 L 82.121094 42.625 L 67.953125 42.625 Z M 100.402344 38.078125 L 114.570312 38.078125 L 114.570312 42.625 L 100.402344 42.625 Z M 19.292969 43.863281 L 33.457031 43.863281 L 33.457031 48.410156 L 19.292969 48.410156 Z M 35.503906 43.863281 L 49.667969 43.863281 L 49.667969 48.410156 L 35.503906 48.410156 Z M 51.714844 43.863281 L 65.878906 43.863281 L 65.878906 48.410156 L 51.714844 48.410156 Z M 67.953125 43.863281 L 82.121094 43.863281 L 82.121094 48.410156 L 67.953125 48.410156 Z M 84.191406 43.863281 L 98.359375 43.863281 L 98.359375 48.410156 L 84.191406 48.410156 Z M 100.402344 43.863281 L 114.570312 43.863281 L 114.570312 48.410156 L 100.402344 48.410156 Z M 19.292969 49.617188 L 33.457031 49.617188 L 33.457031 54.164062 L 19.292969 54.164062 Z M 35.503906 49.617188 L 49.667969 49.617188 L 49.667969 54.164062 L 35.503906 54.164062 Z M 51.714844 49.617188 L 65.878906 49.617188 L 65.878906 54.164062 L 51.714844 54.164062 Z M 67.953125 49.617188 L 82.121094 49.617188 L 82.121094 54.164062 L 67.953125 54.164062 Z M 84.191406 49.617188 L 98.359375 49.617188 L 98.359375 54.164062 L 84.191406 54.164062 Z M 100.402344 49.617188 L 114.570312 49.617188 L 114.570312 54.164062 L 100.402344 54.164062 Z M 116.613281 49.617188 L 130.78125 49.617188 L 130.78125 54.164062 L 116.613281 54.164062 Z M 3.050781 55.402344 L 17.21875 55.402344 L 17.21875 59.949219 L 3.050781 59.949219 Z M 19.292969 55.402344 L 33.457031 55.402344 L 33.457031 59.949219 L 19.292969 59.949219 Z M 35.503906 55.402344 L 49.667969 55.402344 L 49.667969 59.949219 L 35.503906 59.949219 Z M 51.714844 55.402344 L 65.878906 55.402344 L 65.878906 59.949219 L 51.714844 59.949219 Z M 67.953125 55.402344 L 82.121094 55.402344 L 82.121094 59.949219 L 67.953125 59.949219 Z M 84.191406 55.402344 L 98.359375 55.402344 L 98.359375 59.949219 L 84.191406 59.949219 Z M 100.402344 55.402344 L 114.570312 55.402344 L 114.570312 59.949219 L 100.402344 59.949219 Z M 116.613281 55.402344 L 130.78125 55.402344 L 130.78125 59.949219 L 116.613281 59.949219 Z M 3.050781 61.1875 L 17.21875 61.1875 L 17.21875 65.734375 L 3.050781 65.734375 Z M 19.292969 61.1875 L 33.457031 61.1875 L 33.457031 65.734375 L 19.292969 65.734375 Z M 35.503906 61.1875 L 49.667969 61.1875 L 49.667969 65.734375 L 35.503906 65.734375 Z M 51.714844 61.1875 L 65.878906 61.1875 L 65.878906 65.734375 L 51.714844 65.734375 Z M 67.953125 61.1875 L 82.121094 61.1875 L 82.121094 65.734375 L 67.953125 65.734375 Z M 84.191406 61.1875 L 98.359375 61.1875 L 98.359375 65.734375 L 84.191406 65.734375 Z M 100.402344 61.1875 L 114.570312 61.1875 L 114.570312 65.734375 L 100.402344 65.734375 Z M 116.613281 61.1875 L 130.78125 61.1875 L 130.78125 65.734375 L 116.613281 65.734375 Z M 132.851562 61.1875 L 147.019531 61.1875 L 147.019531 65.734375 L 132.851562 65.734375 Z M 3.050781 66.941406 L 17.21875 66.941406 L 17.21875 71.488281 L 3.050781 71.488281 Z M 19.292969 66.941406 L 33.457031 66.941406 L 33.457031 71.488281 L 19.292969 71.488281 Z M 35.503906 66.941406 L 49.667969 66.941406 L 49.667969 71.488281 L 35.503906 71.488281 Z M 51.714844 66.941406 L 65.878906 66.941406 L 65.878906 71.488281 L 51.714844 71.488281 Z M 67.953125 66.941406 L 82.121094 66.941406 L 82.121094 71.488281 L 67.953125 71.488281 Z M 84.191406 66.941406 L 98.359375 66.941406 L 98.359375 71.488281 L 84.191406 71.488281 Z M 100.402344 66.941406 L 114.570312 66.941406 L 114.570312 71.488281 L 100.402344 71.488281 Z M 116.613281 66.941406 L 130.78125 66.941406 L 130.78125 71.488281 L 116.613281 71.488281 Z M 132.851562 66.941406 L 147.019531 66.941406 L 147.019531 71.488281 L 132.851562 71.488281 Z M 3.050781 72.726562 L 17.21875 72.726562 L 17.21875 77.273438 L 3.050781 77.273438 Z M 19.292969 72.726562 L 33.457031 72.726562 L 33.457031 77.273438 L 19.292969 77.273438 Z M 35.503906 72.726562 L 49.667969 72.726562 L 49.667969 77.273438 L 35.503906 77.273438 Z M 51.714844 72.726562 L 65.878906 72.726562 L 65.878906 77.273438 L 51.714844 77.273438 Z M 67.953125 72.726562 L 82.121094 72.726562 L 82.121094 77.273438 L 67.953125 77.273438 Z M 84.191406 72.726562 L 98.359375 72.726562 L 98.359375 77.273438 L 84.191406 77.273438 Z M 100.402344 72.726562 L 114.570312 72.726562 L 114.570312 77.273438 L 100.402344 77.273438 Z M 116.613281 72.726562 L 130.78125 72.726562 L 130.78125 77.273438 L 116.613281 77.273438 Z M 132.851562 72.726562 L 147.019531 72.726562 L 147.019531 77.273438 L 132.851562 77.273438 Z M 3.050781 78.480469 L 17.21875 78.480469 L 17.21875 83.027344 L 3.050781 83.027344 Z M 19.292969 78.480469 L 33.457031 78.480469 L 33.457031 83.027344 L 19.292969 83.027344 Z M 35.503906 78.480469 L 49.667969 78.480469 L 49.667969 83.027344 L 35.503906 83.027344 Z M 51.714844 78.480469 L 65.878906 78.480469 L 65.878906 83.027344 L 51.714844 83.027344 Z M 67.953125 78.480469 L 82.121094 78.480469 L 82.121094 83.027344 L 67.953125 83.027344 Z M 84.191406 78.480469 L 98.359375 78.480469 L 98.359375 83.027344 L 84.191406 83.027344 Z M 100.402344 78.480469 L 114.570312 78.480469 L 114.570312 83.027344 L 100.402344 83.027344 Z M 116.613281 78.480469 L 130.78125 78.480469 L 130.78125 83.027344 L 116.613281 83.027344 Z M 132.851562 78.480469 L 147.019531 78.480469 L 147.019531 83.027344 L 132.851562 83.027344 Z M 3.050781 84.265625 L 17.21875 84.265625 L 17.21875 88.8125 L 3.050781 88.8125 Z M 19.292969 84.265625 L 33.457031 84.265625 L 33.457031 88.8125 L 19.292969 88.8125 Z M 35.503906 84.265625 L 49.667969 84.265625 L 49.667969 88.8125 L 35.503906 88.8125 Z M 51.714844 84.265625 L 65.878906 84.265625 L 65.878906 88.8125 L 51.714844 88.8125 Z M 67.953125 84.265625 L 82.121094 84.265625 L 82.121094 88.8125 L 67.953125 88.8125 Z M 84.191406 84.265625 L 98.359375 84.265625 L 98.359375 88.8125 L 84.191406 88.8125 Z M 100.402344 84.265625 L 114.570312 84.265625 L 114.570312 88.8125 L 100.402344 88.8125 Z M 116.613281 84.265625 L 130.78125 84.265625 L 130.78125 88.8125 L 116.613281 88.8125 Z M 132.851562 84.265625 L 147.019531 84.265625 L 147.019531 88.8125 L 132.851562 88.8125 Z M 3.050781 90.050781 L 17.21875 90.050781 L 17.21875 94.597656 L 3.050781 94.597656 Z M 19.292969 90.050781 L 33.457031 90.050781 L 33.457031 94.597656 L 19.292969 94.597656 Z M 35.503906 90.050781 L 49.667969 90.050781 L 49.667969 94.597656 L 35.503906 94.597656 Z M 51.714844 90.050781 L 65.878906 90.050781 L 65.878906 94.597656 L 51.714844 94.597656 Z M 67.953125 90.050781 L 82.121094 90.050781 L 82.121094 94.597656 L 67.953125 94.597656 Z M 84.191406 90.050781 L 98.359375 90.050781 L 98.359375 94.597656 L 84.191406 94.597656 Z M 100.402344 90.050781 L 114.570312 90.050781 L 114.570312 94.597656 L 100.402344 94.597656 Z M 116.613281 90.050781 L 130.78125 90.050781 L 130.78125 94.597656 L 116.613281 94.597656 Z M 19.292969 95.835938 L 33.457031 95.835938 L 33.457031 100.382812 L 19.292969 100.382812 Z M 35.503906 95.835938 L 49.667969 95.835938 L 49.667969 100.382812 L 35.503906 100.382812 Z M 51.714844 95.835938 L 65.878906 95.835938 L 65.878906 100.382812 L 51.714844 100.382812 Z M 67.953125 95.835938 L 82.121094 95.835938 L 82.121094 100.382812 L 67.953125 100.382812 Z M 84.191406 95.835938 L 98.359375 95.835938 L 98.359375 100.382812 L 84.191406 100.382812 Z M 100.402344 95.835938 L 114.570312 95.835938 L 114.570312 100.382812 L 100.402344 100.382812 Z M 116.613281 95.835938 L 130.78125 95.835938 L 130.78125 100.382812 L 116.613281 100.382812 Z M 19.292969 101.589844 L 33.457031 101.589844 L 33.457031 106.136719 L 19.292969 106.136719 Z M 35.503906 101.589844 L 49.667969 101.589844 L 49.667969 106.136719 L 35.503906 106.136719 Z M 51.714844 101.589844 L 65.878906 101.589844 L 65.878906 106.136719 L 51.714844 106.136719 Z M 67.953125 101.589844 L 82.121094 101.589844 L 82.121094 106.136719 L 67.953125 106.136719 Z M 84.191406 101.589844 L 98.359375 101.589844 L 98.359375 106.136719 L 84.191406 106.136719 Z M 100.402344 101.589844 L 114.570312 101.589844 L 114.570312 106.136719 L 100.402344 106.136719 Z M 19.292969 107.375 L 33.457031 107.375 L 33.457031 111.921875 L 19.292969 111.921875 Z M 51.714844 107.375 L 65.878906 107.375 L 65.878906 111.921875 L 51.714844 111.921875 Z M 67.953125 107.375 L 82.121094 107.375 L 82.121094 111.921875 L 67.953125 111.921875 Z M 100.402344 107.375 L 114.570312 107.375 L 114.570312 111.921875 L 100.402344 111.921875 Z M 19.292969 113.128906 L 33.457031 113.128906 L 33.457031 117.675781 L 19.292969 117.675781 Z M 51.714844 113.128906 L 65.878906 113.128906 L 65.878906 117.675781 L 51.714844 117.675781 Z M 67.953125 113.128906 L 82.121094 113.128906 L 82.121094 117.675781 L 67.953125 117.675781 Z M 100.402344 113.128906 L 114.570312 113.128906 L 114.570312 117.675781 L 100.402344 117.675781 Z M 51.714844 118.914062 L 65.878906 118.914062 L 65.878906 123.460938 L 51.714844 123.460938 Z M 67.953125 118.914062 L 82.121094 118.914062 L 82.121094 123.460938 L 67.953125 123.460938 Z M 100.402344 118.914062 L 114.570312 118.914062 L 114.570312 123.460938 L 100.402344 123.460938 Z M 67.953125 124.699219 L 82.121094 124.699219 L 82.121094 129.246094 L 67.953125 129.246094 Z M 67.953125 130.453125 L 82.121094 130.453125 L 82.121094 135 L 67.953125 135 Z M 67.953125 130.453125 " clip-rule="nonzero"/></clipPath><linearGradient x1="250" gradientTransform="matrix(0.287934, 0, 0, 0.28777, 3.052531, 3.057558)" y1="41.499994" x2="250" gradientUnits="userSpaceOnUse" y2="458.500012" id="c40343f8d0"><stop stop-opacity="1" stop-color="rgb(24.299622%, 67.799377%, 88.598633%)" offset="0"/><stop stop-opacity="1" stop-color="rgb(24.299622%, 67.799377%, 88.598633%)" offset="0.0625"/><stop stop-opacity="1" stop-color="rgb(24.447632%, 67.69104%, 88.565063%)" offset="0.09375"/><stop stop-opacity="1" stop-color="rgb(25.152588%, 67.178345%, 88.407898%)" offset="0.0976562"/><stop stop-opacity="1" stop-color="rgb(25.709534%, 66.773987%, 88.282776%)" offset="0.101562"/><stop stop-opacity="1" stop-color="rgb(26.264954%, 66.368103%, 88.157654%)" offset="0.105469"/><stop stop-opacity="1" stop-color="rgb(26.821899%, 65.963745%, 88.034058%)" offset="0.109375"/><stop stop-opacity="1" stop-color="rgb(27.377319%, 65.557861%, 87.908936%)" offset="0.113281"/><stop stop-opacity="1" stop-color="rgb(27.934265%, 65.153503%, 87.783813%)" offset="0.117187"/><stop stop-opacity="1" stop-color="rgb(28.489685%, 64.749146%, 87.658691%)" offset="0.121094"/><stop stop-opacity="1" stop-color="rgb(29.046631%, 64.344788%, 87.533569%)" offset="0.125"/><stop stop-opacity="1" stop-color="rgb(29.603577%, 63.938904%, 87.408447%)" offset="0.128906"/><stop stop-opacity="1" stop-color="rgb(30.160522%, 63.534546%, 87.284851%)" offset="0.132812"/><stop stop-opacity="1" stop-color="rgb(30.715942%, 63.130188%, 87.159729%)" offset="0.136719"/><stop stop-opacity="1" stop-color="rgb(31.272888%, 62.72583%, 87.034607%)" offset="0.140625"/><stop stop-opacity="1" stop-color="rgb(31.828308%, 62.319946%, 86.909485%)" offset="0.144531"/><stop stop-opacity="1" stop-color="rgb(32.385254%, 61.915588%, 86.785889%)" offset="0.148438"/><stop stop-opacity="1" stop-color="rgb(32.940674%, 61.509705%, 86.660767%)" offset="0.152344"/><stop stop-opacity="1" stop-color="rgb(33.49762%, 61.105347%, 86.535645%)" offset="0.15625"/><stop stop-opacity="1" stop-color="rgb(34.054565%, 60.700989%, 86.410522%)" offset="0.160156"/><stop stop-opacity="1" stop-color="rgb(34.611511%, 60.296631%, 86.286926%)" offset="0.164063"/><stop stop-opacity="1" stop-color="rgb(35.166931%, 59.890747%, 86.161804%)" offset="0.167969"/><stop stop-opacity="1" stop-color="rgb(35.723877%, 59.486389%, 86.036682%)" offset="0.171875"/><stop stop-opacity="1" stop-color="rgb(36.279297%, 59.080505%, 85.91156%)" offset="0.175781"/><stop stop-opacity="1" stop-color="rgb(36.836243%, 58.676147%, 85.786438%)" offset="0.179687"/><stop stop-opacity="1" stop-color="rgb(37.391663%, 58.27179%, 85.661316%)" offset="0.183594"/><stop stop-opacity="1" stop-color="rgb(37.948608%, 57.867432%, 85.53772%)" offset="0.1875"/><stop stop-opacity="1" stop-color="rgb(38.505554%, 57.461548%, 85.412598%)" offset="0.191406"/><stop stop-opacity="1" stop-color="rgb(39.0625%, 57.05719%, 85.287476%)" offset="0.195312"/><stop stop-opacity="1" stop-color="rgb(39.61792%, 56.651306%, 85.162354%)" offset="0.199219"/><stop stop-opacity="1" stop-color="rgb(40.174866%, 56.246948%, 85.038757%)" offset="0.203125"/><stop stop-opacity="1" stop-color="rgb(40.730286%, 55.84259%, 84.913635%)" offset="0.207031"/><stop stop-opacity="1" stop-color="rgb(41.287231%, 55.438232%, 84.788513%)" offset="0.210937"/><stop stop-opacity="1" stop-color="rgb(41.842651%, 55.032349%, 84.663391%)" offset="0.214844"/><stop stop-opacity="1" stop-color="rgb(42.399597%, 54.627991%, 84.539795%)" offset="0.21875"/><stop stop-opacity="1" stop-color="rgb(42.956543%, 54.223633%, 84.414673%)" offset="0.222656"/><stop stop-opacity="1" stop-color="rgb(43.513489%, 53.819275%, 84.289551%)" offset="0.226562"/><stop stop-opacity="1" stop-color="rgb(44.068909%, 53.413391%, 84.164429%)" offset="0.230469"/><stop stop-opacity="1" stop-color="rgb(44.625854%, 53.009033%, 84.039307%)" offset="0.234375"/><stop stop-opacity="1" stop-color="rgb(45.181274%, 52.603149%, 83.914185%)" offset="0.238281"/><stop stop-opacity="1" stop-color="rgb(45.73822%, 52.198792%, 83.790588%)" offset="0.242187"/><stop stop-opacity="1" stop-color="rgb(46.29364%, 51.794434%, 83.665466%)" offset="0.246094"/><stop stop-opacity="1" stop-color="rgb(46.850586%, 51.390076%, 83.540344%)" offset="0.25"/><stop stop-opacity="1" stop-color="rgb(47.407532%, 50.984192%, 83.415222%)" offset="0.253906"/><stop stop-opacity="1" stop-color="rgb(47.964478%, 50.579834%, 83.291626%)" offset="0.257812"/><stop stop-opacity="1" stop-color="rgb(48.519897%, 50.17395%, 83.166504%)" offset="0.261719"/><stop stop-opacity="1" stop-color="rgb(49.076843%, 49.769592%, 83.041382%)" offset="0.265625"/><stop stop-opacity="1" stop-color="rgb(49.632263%, 49.365234%, 82.91626%)" offset="0.269531"/><stop stop-opacity="1" stop-color="rgb(50.189209%, 48.960876%, 82.792664%)" offset="0.273437"/><stop stop-opacity="1" stop-color="rgb(50.744629%, 48.554993%, 82.667542%)" offset="0.277344"/><stop stop-opacity="1" stop-color="rgb(51.301575%, 48.150635%, 82.542419%)" offset="0.28125"/><stop stop-opacity="1" stop-color="rgb(51.858521%, 47.746277%, 82.417297%)" offset="0.285156"/><stop stop-opacity="1" stop-color="rgb(52.415466%, 47.341919%, 82.292175%)" offset="0.289062"/><stop stop-opacity="1" stop-color="rgb(52.970886%, 46.936035%, 82.167053%)" offset="0.292969"/><stop stop-opacity="1" stop-color="rgb(53.527832%, 46.531677%, 82.043457%)" offset="0.296875"/><stop stop-opacity="1" stop-color="rgb(54.083252%, 46.125793%, 81.918335%)" offset="0.300781"/><stop stop-opacity="1" stop-color="rgb(54.640198%, 45.721436%, 81.793213%)" offset="0.304687"/><stop stop-opacity="1" stop-color="rgb(55.195618%, 45.317078%, 81.668091%)" offset="0.308594"/><stop stop-opacity="1" stop-color="rgb(55.752563%, 44.91272%, 81.544495%)" offset="0.3125"/><stop stop-opacity="1" stop-color="rgb(56.309509%, 44.506836%, 81.419373%)" offset="0.316406"/><stop stop-opacity="1" stop-color="rgb(56.866455%, 44.102478%, 81.29425%)" offset="0.320312"/><stop stop-opacity="1" stop-color="rgb(57.421875%, 43.696594%, 81.169128%)" offset="0.324219"/><stop stop-opacity="1" stop-color="rgb(57.978821%, 43.292236%, 81.045532%)" offset="0.328125"/><stop stop-opacity="1" stop-color="rgb(58.534241%, 42.887878%, 80.92041%)" offset="0.332031"/><stop stop-opacity="1" stop-color="rgb(59.091187%, 42.483521%, 80.795288%)" offset="0.335938"/><stop stop-opacity="1" stop-color="rgb(59.646606%, 42.077637%, 80.670166%)" offset="0.339844"/><stop stop-opacity="1" stop-color="rgb(60.203552%, 41.673279%, 80.545044%)" offset="0.34375"/><stop stop-opacity="1" stop-color="rgb(60.760498%, 41.267395%, 80.419922%)" offset="0.347656"/><stop stop-opacity="1" stop-color="rgb(61.317444%, 40.863037%, 80.296326%)" offset="0.351562"/><stop stop-opacity="1" stop-color="rgb(61.872864%, 40.458679%, 80.171204%)" offset="0.355469"/><stop stop-opacity="1" stop-color="rgb(62.42981%, 40.054321%, 80.046082%)" offset="0.359375"/><stop stop-opacity="1" stop-color="rgb(62.985229%, 39.648438%, 79.920959%)" offset="0.363281"/><stop stop-opacity="1" stop-color="rgb(63.542175%, 39.24408%, 79.797363%)" offset="0.367187"/><stop stop-opacity="1" stop-color="rgb(64.097595%, 38.839722%, 79.672241%)" offset="0.371094"/><stop stop-opacity="1" stop-color="rgb(64.654541%, 38.435364%, 79.547119%)" offset="0.375"/><stop stop-opacity="1" stop-color="rgb(65.211487%, 38.02948%, 79.421997%)" offset="0.378906"/><stop stop-opacity="1" stop-color="rgb(65.768433%, 37.625122%, 79.298401%)" offset="0.382812"/><stop stop-opacity="1" stop-color="rgb(66.323853%, 37.219238%, 79.173279%)" offset="0.386719"/><stop stop-opacity="1" stop-color="rgb(66.880798%, 36.81488%, 79.048157%)" offset="0.390625"/><stop stop-opacity="1" stop-color="rgb(67.436218%, 36.410522%, 78.923035%)" offset="0.394531"/><stop stop-opacity="1" stop-color="rgb(67.993164%, 36.006165%, 78.797913%)" offset="0.398437"/><stop stop-opacity="1" stop-color="rgb(68.548584%, 35.600281%, 78.672791%)" offset="0.402344"/><stop stop-opacity="1" stop-color="rgb(69.10553%, 35.195923%, 78.549194%)" offset="0.40625"/><stop stop-opacity="1" stop-color="rgb(69.662476%, 34.790039%, 78.424072%)" offset="0.410156"/><stop stop-opacity="1" stop-color="rgb(70.219421%, 34.385681%, 78.29895%)" offset="0.414062"/><stop stop-opacity="1" stop-color="rgb(70.774841%, 33.981323%, 78.173828%)" offset="0.417969"/><stop stop-opacity="1" stop-color="rgb(71.331787%, 33.576965%, 78.050232%)" offset="0.421875"/><stop stop-opacity="1" stop-color="rgb(71.887207%, 33.171082%, 77.92511%)" offset="0.425781"/><stop stop-opacity="1" stop-color="rgb(72.444153%, 32.766724%, 77.799988%)" offset="0.429687"/><stop stop-opacity="1" stop-color="rgb(72.999573%, 32.362366%, 77.674866%)" offset="0.433594"/><stop stop-opacity="1" stop-color="rgb(73.556519%, 31.958008%, 77.55127%)" offset="0.4375"/><stop stop-opacity="1" stop-color="rgb(74.113464%, 31.552124%, 77.426147%)" offset="0.441406"/><stop stop-opacity="1" stop-color="rgb(74.67041%, 31.147766%, 77.301025%)" offset="0.445312"/><stop stop-opacity="1" stop-color="rgb(75.22583%, 30.741882%, 77.175903%)" offset="0.449219"/><stop stop-opacity="1" stop-color="rgb(75.782776%, 30.337524%, 77.050781%)" offset="0.453125"/><stop stop-opacity="1" stop-color="rgb(76.338196%, 29.933167%, 76.925659%)" offset="0.457031"/><stop stop-opacity="1" stop-color="rgb(76.895142%, 29.528809%, 76.802063%)" offset="0.460937"/><stop stop-opacity="1" stop-color="rgb(77.450562%, 29.122925%, 76.676941%)" offset="0.464844"/><stop stop-opacity="1" stop-color="rgb(78.007507%, 28.718567%, 76.551819%)" offset="0.46875"/><stop stop-opacity="1" stop-color="rgb(78.564453%, 28.312683%, 76.426697%)" offset="0.472656"/><stop stop-opacity="1" stop-color="rgb(79.121399%, 27.908325%, 76.303101%)" offset="0.476562"/><stop stop-opacity="1" stop-color="rgb(79.676819%, 27.503967%, 76.177979%)" offset="0.480469"/><stop stop-opacity="1" stop-color="rgb(80.233765%, 27.099609%, 76.052856%)" offset="0.484375"/><stop stop-opacity="1" stop-color="rgb(80.789185%, 26.693726%, 75.927734%)" offset="0.488281"/><stop stop-opacity="1" stop-color="rgb(81.34613%, 26.289368%, 75.804138%)" offset="0.492188"/><stop stop-opacity="1" stop-color="rgb(81.90155%, 25.883484%, 75.679016%)" offset="0.496094"/><stop stop-opacity="1" stop-color="rgb(82.458496%, 25.479126%, 75.553894%)" offset="0.5"/><stop stop-opacity="1" stop-color="rgb(83.015442%, 25.074768%, 75.428772%)" offset="0.503906"/><stop stop-opacity="1" stop-color="rgb(83.572388%, 24.67041%, 75.305176%)" offset="0.507812"/><stop stop-opacity="1" stop-color="rgb(84.127808%, 24.264526%, 75.180054%)" offset="0.511719"/><stop stop-opacity="1" stop-color="rgb(84.684753%, 23.860168%, 75.054932%)" offset="0.515625"/><stop stop-opacity="1" stop-color="rgb(85.240173%, 23.455811%, 74.92981%)" offset="0.519531"/><stop stop-opacity="1" stop-color="rgb(85.797119%, 23.051453%, 74.804688%)" offset="0.523437"/><stop stop-opacity="1" stop-color="rgb(86.352539%, 22.645569%, 74.679565%)" offset="0.527344"/><stop stop-opacity="1" stop-color="rgb(86.909485%, 22.241211%, 74.555969%)" offset="0.53125"/><stop stop-opacity="1" stop-color="rgb(87.466431%, 21.835327%, 74.430847%)" offset="0.535156"/><stop stop-opacity="1" stop-color="rgb(88.023376%, 21.430969%, 74.305725%)" offset="0.539062"/><stop stop-opacity="1" stop-color="rgb(88.578796%, 21.026611%, 74.180603%)" offset="0.542969"/><stop stop-opacity="1" stop-color="rgb(89.135742%, 20.622253%, 74.057007%)" offset="0.546875"/><stop stop-opacity="1" stop-color="rgb(89.691162%, 20.21637%, 73.931885%)" offset="0.550781"/><stop stop-opacity="1" stop-color="rgb(90.248108%, 19.812012%, 73.806763%)" offset="0.554688"/><stop stop-opacity="1" stop-color="rgb(90.805054%, 19.406128%, 73.681641%)" offset="0.558594"/><stop stop-opacity="1" stop-color="rgb(91.362%, 19.00177%, 73.558044%)" offset="0.5625"/><stop stop-opacity="1" stop-color="rgb(91.917419%, 18.597412%, 73.432922%)" offset="0.566406"/><stop stop-opacity="1" stop-color="rgb(92.474365%, 18.193054%, 73.3078%)" offset="0.570312"/><stop stop-opacity="1" stop-color="rgb(93.029785%, 17.78717%, 73.182678%)" offset="0.574219"/><stop stop-opacity="1" stop-color="rgb(93.586731%, 17.382812%, 73.057556%)" offset="0.578125"/><stop stop-opacity="1" stop-color="rgb(94.142151%, 16.978455%, 72.932434%)" offset="0.582031"/><stop stop-opacity="1" stop-color="rgb(94.699097%, 16.574097%, 72.808838%)" offset="0.585937"/><stop stop-opacity="1" stop-color="rgb(95.256042%, 16.168213%, 72.683716%)" offset="0.589844"/><stop stop-opacity="1" stop-color="rgb(95.812988%, 15.763855%, 72.558594%)" offset="0.59375"/><stop stop-opacity="1" stop-color="rgb(96.368408%, 15.357971%, 72.433472%)" offset="0.597656"/><stop stop-opacity="1" stop-color="rgb(96.925354%, 14.953613%, 72.309875%)" offset="0.601562"/><stop stop-opacity="1" stop-color="rgb(97.480774%, 14.549255%, 72.184753%)" offset="0.605469"/><stop stop-opacity="1" stop-color="rgb(98.03772%, 14.144897%, 72.059631%)" offset="0.609375"/><stop stop-opacity="1" stop-color="rgb(98.59314%, 13.739014%, 71.934509%)" offset="0.613281"/><stop stop-opacity="1" stop-color="rgb(99.150085%, 13.334656%, 71.810913%)" offset="0.617188"/><stop stop-opacity="1" stop-color="rgb(99.1745%, 13.294983%, 71.694946%)" offset="0.625"/><stop stop-opacity="1" stop-color="rgb(99.198914%, 13.232422%, 71.464539%)" offset="0.632812"/><stop stop-opacity="1" stop-color="rgb(99.198914%, 13.186646%, 71.234131%)" offset="0.640625"/><stop stop-opacity="1" stop-color="rgb(99.198914%, 13.140869%, 71.003723%)" offset="0.648438"/><stop stop-opacity="1" stop-color="rgb(99.198914%, 13.093567%, 70.774841%)" offset="0.65625"/><stop stop-opacity="1" stop-color="rgb(99.198914%, 13.047791%, 70.544434%)" offset="0.664063"/><stop stop-opacity="1" stop-color="rgb(99.198914%, 13.002014%, 70.314026%)" offset="0.671875"/><stop stop-opacity="1" stop-color="rgb(99.198914%, 12.956238%, 70.085144%)" offset="0.679688"/><stop stop-opacity="1" stop-color="rgb(99.198914%, 12.910461%, 69.815063%)" offset="0.6875"/><stop stop-opacity="1" stop-color="rgb(99.198914%, 12.867737%, 69.390869%)" offset="0.691406"/><stop stop-opacity="1" stop-color="rgb(99.198914%, 12.846375%, 69.122314%)" offset="0.695312"/><stop stop-opacity="1" stop-color="rgb(99.198914%, 12.825012%, 68.852234%)" offset="0.699219"/><stop stop-opacity="1" stop-color="rgb(99.198914%, 12.80365%, 68.583679%)" offset="0.703125"/><stop stop-opacity="1" stop-color="rgb(99.198914%, 12.782288%, 68.313599%)" offset="0.707031"/><stop stop-opacity="1" stop-color="rgb(99.198914%, 12.760925%, 68.045044%)" offset="0.710937"/><stop stop-opacity="1" stop-color="rgb(99.198914%, 12.739563%, 67.774963%)" offset="0.714844"/><stop stop-opacity="1" stop-color="rgb(99.198914%, 12.719727%, 67.504883%)" offset="0.71875"/><stop stop-opacity="1" stop-color="rgb(99.198914%, 12.698364%, 67.234802%)" offset="0.722656"/><stop stop-opacity="1" stop-color="rgb(99.198914%, 12.677002%, 66.966248%)" offset="0.726562"/><stop stop-opacity="1" stop-color="rgb(99.198914%, 12.65564%, 66.696167%)" offset="0.730469"/><stop stop-opacity="1" stop-color="rgb(99.198914%, 12.634277%, 66.427612%)" offset="0.734375"/><stop stop-opacity="1" stop-color="rgb(99.198914%, 12.612915%, 66.157532%)" offset="0.738281"/><stop stop-opacity="1" stop-color="rgb(99.198914%, 12.593079%, 65.888977%)" offset="0.742188"/><stop stop-opacity="1" stop-color="rgb(99.198914%, 12.571716%, 65.618896%)" offset="0.746094"/><stop stop-opacity="1" stop-color="rgb(99.198914%, 12.550354%, 65.350342%)" offset="0.75"/><stop stop-opacity="1" stop-color="rgb(99.198914%, 12.528992%, 65.080261%)" offset="0.753906"/><stop stop-opacity="1" stop-color="rgb(99.198914%, 12.507629%, 64.810181%)" offset="0.757812"/><stop stop-opacity="1" stop-color="rgb(99.198914%, 12.460327%, 64.416504%)" offset="0.761719"/><stop stop-opacity="1" stop-color="rgb(99.198914%, 12.413025%, 64.022827%)" offset="0.765625"/><stop stop-opacity="1" stop-color="rgb(99.198914%, 12.358093%, 63.595581%)" offset="0.769531"/><stop stop-opacity="1" stop-color="rgb(99.198914%, 12.303162%, 63.168335%)" offset="0.773438"/><stop stop-opacity="1" stop-color="rgb(99.198914%, 12.24823%, 62.741089%)" offset="0.777344"/><stop stop-opacity="1" stop-color="rgb(99.198914%, 12.194824%, 62.315369%)" offset="0.78125"/><stop stop-opacity="1" stop-color="rgb(99.198914%, 12.139893%, 61.888123%)" offset="0.785156"/><stop stop-opacity="1" stop-color="rgb(99.198914%, 12.084961%, 61.460876%)" offset="0.789062"/><stop stop-opacity="1" stop-color="rgb(99.198914%, 12.030029%, 61.03363%)" offset="0.792969"/><stop stop-opacity="1" stop-color="rgb(99.198914%, 11.976624%, 60.60791%)" offset="0.796875"/><stop stop-opacity="1" stop-color="rgb(99.198914%, 11.921692%, 60.180664%)" offset="0.800781"/><stop stop-opacity="1" stop-color="rgb(99.198914%, 11.86676%, 59.753418%)" offset="0.804687"/><stop stop-opacity="1" stop-color="rgb(99.198914%, 11.811829%, 59.326172%)" offset="0.808594"/><stop stop-opacity="1" stop-color="rgb(99.198914%, 11.756897%, 58.900452%)" offset="0.8125"/><stop stop-opacity="1" stop-color="rgb(99.198914%, 11.701965%, 58.473206%)" offset="0.816406"/><stop stop-opacity="1" stop-color="rgb(99.198914%, 11.64856%, 58.045959%)" offset="0.820312"/><stop stop-opacity="1" stop-color="rgb(99.198914%, 11.593628%, 57.618713%)" offset="0.824219"/><stop stop-opacity="1" stop-color="rgb(99.198914%, 11.538696%, 57.192993%)" offset="0.828125"/><stop stop-opacity="1" stop-color="rgb(99.198914%, 11.483765%, 56.765747%)" offset="0.832031"/><stop stop-opacity="1" stop-color="rgb(99.198914%, 11.430359%, 56.338501%)" offset="0.835937"/><stop stop-opacity="1" stop-color="rgb(99.198914%, 11.372375%, 55.781555%)" offset="0.839844"/><stop stop-opacity="1" stop-color="rgb(99.198914%, 11.315918%, 55.226135%)" offset="0.84375"/><stop stop-opacity="1" stop-color="rgb(99.198914%, 11.257935%, 54.618835%)" offset="0.847656"/><stop stop-opacity="1" stop-color="rgb(99.198914%, 11.199951%, 54.011536%)" offset="0.851562"/><stop stop-opacity="1" stop-color="rgb(99.198914%, 11.141968%, 53.404236%)" offset="0.855469"/><stop stop-opacity="1" stop-color="rgb(99.198914%, 11.08551%, 52.798462%)" offset="0.859375"/><stop stop-opacity="1" stop-color="rgb(99.198914%, 11.027527%, 52.191162%)" offset="0.863281"/><stop stop-opacity="1" stop-color="rgb(99.198914%, 10.969543%, 51.583862%)" offset="0.867187"/><stop stop-opacity="1" stop-color="rgb(99.198914%, 10.91156%, 50.976562%)" offset="0.871094"/><stop stop-opacity="1" stop-color="rgb(99.198914%, 10.853577%, 50.369263%)" offset="0.875"/><stop stop-opacity="1" stop-color="rgb(99.198914%, 10.795593%, 49.761963%)" offset="0.878906"/><stop stop-opacity="1" stop-color="rgb(99.198914%, 10.73761%, 49.156189%)" offset="0.882812"/><stop stop-opacity="1" stop-color="rgb(99.198914%, 10.679626%, 48.548889%)" offset="0.886719"/><stop stop-opacity="1" stop-color="rgb(99.198914%, 10.621643%, 47.941589%)" offset="0.890625"/><stop stop-opacity="1" stop-color="rgb(99.198914%, 10.56366%, 47.33429%)" offset="0.894531"/><stop stop-opacity="1" stop-color="rgb(99.198914%, 10.507202%, 46.728516%)" offset="0.898438"/><stop stop-opacity="1" stop-color="rgb(99.198914%, 10.449219%, 46.121216%)" offset="0.902344"/><stop stop-opacity="1" stop-color="rgb(99.198914%, 10.391235%, 45.513916%)" offset="0.90625"/><stop stop-opacity="1" stop-color="rgb(99.198914%, 10.333252%, 44.906616%)" offset="0.910156"/><stop stop-opacity="1" stop-color="rgb(99.198914%, 10.275269%, 44.299316%)" offset="0.914062"/><stop stop-opacity="1" stop-color="rgb(99.198914%, 10.205078%, 43.652344%)" offset="0.917969"/><stop stop-opacity="1" stop-color="rgb(99.198914%, 10.134888%, 43.005371%)" offset="0.921875"/><stop stop-opacity="1" stop-color="rgb(99.198914%, 10.038757%, 42.279053%)" offset="0.925781"/><stop stop-opacity="1" stop-color="rgb(99.198914%, 9.944153%, 41.552734%)" offset="0.929688"/><stop stop-opacity="1" stop-color="rgb(99.198914%, 9.849548%, 40.82489%)" offset="0.933594"/><stop stop-opacity="1" stop-color="rgb(99.198914%, 9.754944%, 40.098572%)" offset="0.9375"/><stop stop-opacity="1" stop-color="rgb(99.198914%, 9.658813%, 39.372253%)" offset="0.941406"/><stop stop-opacity="1" stop-color="rgb(99.198914%, 9.564209%, 38.645935%)" offset="0.945312"/><stop stop-opacity="1" stop-color="rgb(99.198914%, 9.469604%, 37.919617%)" offset="0.949219"/><stop stop-opacity="1" stop-color="rgb(99.198914%, 9.375%, 37.193298%)" offset="0.953125"/><stop stop-opacity="1" stop-color="rgb(99.198914%, 9.280396%, 36.46698%)" offset="0.957031"/><stop stop-opacity="1" stop-color="rgb(99.198914%, 9.185791%, 35.740662%)" offset="0.960938"/><stop stop-opacity="1" stop-color="rgb(99.198914%, 9.089661%, 35.014343%)" offset="0.964844"/><stop stop-opacity="1" stop-color="rgb(99.198914%, 8.995056%, 34.288025%)" offset="0.96875"/><stop stop-opacity="1" stop-color="rgb(99.198914%, 8.900452%, 33.561707%)" offset="0.972656"/><stop stop-opacity="1" stop-color="rgb(99.198914%, 8.805847%, 32.835388%)" offset="0.976563"/><stop stop-opacity="1" stop-color="rgb(99.198914%, 8.709717%, 32.10907%)" offset="0.980469"/><stop stop-opacity="1" stop-color="rgb(99.198914%, 8.615112%, 31.382751%)" offset="0.984375"/><stop stop-opacity="1" stop-color="rgb(99.198914%, 8.520508%, 30.656433%)" offset="0.988281"/><stop stop-opacity="1" stop-color="rgb(99.198914%, 8.425903%, 29.930115%)" offset="0.992188"/><stop stop-opacity="1" stop-color="rgb(99.198914%, 8.329773%, 29.203796%)" offset="0.996094"/><stop stop-opacity="1" stop-color="rgb(99.198914%, 8.235168%, 28.477478%)" offset="1"/></linearGradient></defs><g clip-path="url(#4e17722746)"><path fill="url(#c40343f8d0)" d="M 3.050781 15 L 3.050781 135 L 147.019531 135 L 147.019531 15 Z M 3.050781 15 " fill-rule="nonzero"/></g></svg>